Coordinates
version=1
nRows=49
nColumns=12
inDegrees=yes

Units are S.I. units (second, meters, Newtons, ...)
Angles are in degrees

endheader
time	SC_y	SC_z	SC_x	AC_y	AC_z	AC_x	GH_y	GH_z	GH_yy	EL_x	PS_y
       0.0              -43.26          36.76           84.1          61.57         -11.07          9.279          78.11          2.064          66.78          117.7          107.4
   0.04604              -43.26          36.75           84.1          61.57         -11.06          9.275          78.12          2.068          66.78          117.7          107.4
   0.09209              -43.26          36.75          84.09          61.56         -11.06           9.27          78.13          2.072          66.78          117.7          107.4
    0.1381              -43.25          36.74          84.08          61.56         -11.06          9.266          78.14          2.077          66.78          117.7          107.4
    0.1842              -43.25          36.73          84.07          61.56         -11.05          9.261          78.15          2.082          66.77          117.7          107.4
    0.2302              -43.24          36.73          84.06          61.55         -11.05          9.256          78.16          2.087          66.77          117.7          107.4
    0.2763              -43.24          36.72          84.05          61.55         -11.05           9.25          78.17          2.093          66.77          117.7          107.4
    0.3223              -43.23          36.71          84.03          61.55         -11.04          9.244          78.19          2.099          66.77          117.6          107.4
    0.3684              -43.23           36.7          84.02          61.54         -11.04          9.238           78.2          2.105          66.77          117.6          107.4
    0.4144              -43.22           36.7          84.01          61.54         -11.03          9.231          78.21          2.112          66.77          117.6          107.4
    0.4604              -43.21          36.69          83.99          61.53         -11.03          9.223          78.23          2.119          66.77          117.6          107.4
    0.5065               -43.2          36.68          83.98          61.53         -11.02          9.215          78.25          2.127          66.76          117.6          107.4
    0.5525               -43.2          36.67          83.96          61.52         -11.02          9.207          78.27          2.136          66.76          117.6          107.4
    0.5986              -43.19          36.65          83.94          61.52         -11.01          9.198          78.29          2.145          66.76          117.6          107.4
    0.6446              -43.18          36.64          83.92          61.51          -11.0          9.187          78.31          2.155          66.76          117.6          107.4
    0.6907              -43.17          36.63           83.9          61.51          -11.0          9.177          78.33          2.166          66.76          117.5          107.4
    0.7367              -43.16          36.61          83.88           61.5         -10.99          9.165          78.36          2.178          66.75          117.5          107.4
    0.7827              -43.15           36.6          83.85          61.49         -10.98          9.152          78.39           2.19          66.75          117.5          107.4
    0.8288              -43.13          36.58          83.82          61.48         -10.97          9.138          78.42          2.204          66.75          117.5          107.4
    0.8748              -43.12          36.56          83.79          61.47         -10.96          9.122          78.45           2.22          66.74          117.5          107.4
    0.9209               -43.1          36.54          83.76          61.46         -10.95          9.105          78.49          2.237          66.74          117.4          107.4
    0.9669              -43.09          36.51          83.72          61.45         -10.93          9.087          78.53          2.255          66.73          117.4          107.4
     1.013              -43.07          36.49          83.68          61.44         -10.92          9.066          78.58          2.276          66.73          117.4          107.4
     1.059              -43.05          36.46          83.63          61.42          -10.9          9.043          78.63          2.298          66.72          117.3          107.4
     1.105              -43.02          36.43          83.58          61.41         -10.89          9.018          78.68          2.324          66.72          117.3          107.4
     1.151               -43.0          36.39          83.53          61.39         -10.87           8.99          78.74          2.352          66.71          117.2          107.4
     1.197              -42.97          36.35          83.46          61.37         -10.84          8.958          78.81          2.383           66.7          117.2          107.4
     1.243              -42.94          36.31          83.39          61.35         -10.82          8.923          78.89          2.419           66.7          117.1          107.4
     1.289               -42.9          36.26          83.31          61.33         -10.79          8.882          78.98          2.459          66.69          117.1          107.4
     1.335              -42.86           36.2          83.22           61.3         -10.76          8.837          79.08          2.505          66.68          117.0          107.4
     1.381              -42.81          36.13          83.12          61.27         -10.72          8.784           79.2          2.557          66.66          116.9          107.4
     1.427              -42.76          36.06           83.0          61.23         -10.68          8.725          79.33          2.616          66.65          116.8          107.4
     1.473              -42.69          35.97          82.86          61.19         -10.63          8.655          79.48          2.685          66.63          116.7          107.3
     1.519              -42.62          35.87           82.7          61.14         -10.58          8.575          79.66          2.765          66.62          116.6          107.3
     1.565              -42.53          35.75          82.51          61.08         -10.51          8.481          79.86          2.859          66.59          116.4          107.3
     1.612              -42.43          35.61          82.29          61.01         -10.44           8.37          80.11          2.969          66.57          116.3          107.3
     1.658              -42.31          35.44          82.03          60.93         -10.35          8.239           80.4            3.1          66.54          116.1          107.3
     1.704              -42.17          35.25          81.72          60.84         -10.24          8.081          80.74          3.258           66.5          115.8          107.2
      1.75              -41.99          35.01          81.33          60.72          -10.1           7.89          81.16          3.448          66.46          115.5          107.2
     1.796              -41.78          34.71          80.87          60.58         -9.942          7.657          81.68           3.68           66.4          115.1          107.2
     1.842              -41.52          34.35           80.3           60.4         -9.742          7.369          82.31          3.967          66.34          114.7          107.1
     1.888              -41.19           33.9          79.58          60.18         -9.493           7.01           83.1          4.325          66.25          114.1          107.1
     1.934              -40.78          33.33          78.68          59.91          -9.18          6.558          84.09          4.776          66.15          113.4          107.0
      1.98              -40.25           32.6          77.53          59.56         -8.781          5.983          85.36          5.349          66.02          112.5          106.9
     2.026              -39.58          31.67          76.06          59.11         -8.271          5.247          86.98          6.082          65.85          111.3          106.8
     2.072              -38.72          30.48          74.18          58.53         -7.617          4.303          89.05          7.023          65.63          109.8          106.6
     2.118              -37.61          28.96          71.78          57.79         -6.781          3.096          91.71          8.225          65.35          107.9          106.4
     2.164              -36.23          27.05          68.75          56.87          -5.73           1.58          95.04          9.736           65.0          105.5          106.1
      2.21              -34.54          24.72          65.07          55.74         -4.449        -0.2682          99.11          11.58          64.57          102.6          105.8
